<svg xmlns="http://www.w3.org/2000/svg" xml:space="preserve" height="303.438" width="996.969">
  <g style="white-space:pre" aria-label="Chinese" font-weight="400" font-size="20" font-family="Russo One">
    <path d="M430.75 173.907q-36.126 3.24-59.94 3.24-15.876 0-23.328-7.452t-7.452-23.328v-51.84q0-17.01 7.614-24.624 7.776-7.776 24.786-7.776h58.32v22.68h-51.84q-9.72 0-9.72 9.72v51.84q0 3.726 2.106 5.994 2.268 2.106 5.67 2.106h7.452q4.05-.162 8.424-.324l8.748-.324q4.536-.162 11.502-.648 7.128-.486 17.658-1.134zM470.3 91.287q15.715-3.24 27.54-3.24h7.29q11.017 0 17.659 6.642 6.642 6.642 6.642 17.658v63.18h-28.35v-59.94q0-2.43-1.62-4.05-1.62-1.62-4.05-1.62h-5.67q-6.156 0-11.34.648-5.022.648-8.1.972v63.99h-28.35v-113.4h28.35zM579.79 92.907v82.62h-28.35v-60.75h-12.15v-21.87zm-28.35-32.4h28.35v22.68h-28.35zM643.83 111.537q-8.585 0-19.44 3.24v60.75h-28.35v-85.86h25.11l1.62 8.1q7.615-5.022 15.553-7.29 8.1-2.43 13.608-2.43h7.29q11.016 0 17.658 6.642 6.642 6.642 6.642 17.658v63.18h-28.35v-58.32q0-2.43-1.62-4.05-1.62-1.62-4.05-1.62zM731.45 108.297q-6.48 0-6.48 6.48v8.91h27.54v-8.91q0-6.48-6.48-6.48zm46.17 65.61q-31.266 3.24-56.7 3.24-11.016 0-17.658-6.642-6.642-6.642-6.642-17.658v-38.88q0-12.15 6.804-18.954 6.966-6.966 19.116-6.966h32.4q12.15 0 18.954 6.966 6.966 6.804 6.966 18.954v29.97h-55.89v6.48q0 2.43 1.62 4.05 1.62 1.62 4.05 1.62 16.038 0 46.98-2.43zM792.137 152.847q32.886 2.43 51.84 2.43 2.43 0 4.05-1.62 1.62-1.62 1.62-4.05v-5.67h-34.83q-11.016 0-17.658-6.642-6.642-6.642-6.642-17.658v-5.67q0-11.016 6.642-17.658 6.642-6.642 17.658-6.642h55.08v21.06h-45.36q-2.43 0-4.05 1.62-1.62 1.62-1.62 4.05 0 2.43 1.62 4.05 1.62 1.62 4.05 1.62h29.16q11.016 0 17.658 6.642 6.642 6.642 6.642 17.658v6.48q0 11.016-6.642 17.658-6.642 6.642-17.658 6.642-28.674 0-61.56-3.24zM922.56 108.297q-6.48 0-6.48 6.48v8.91h27.54v-8.91q0-6.48-6.48-6.48zm46.17 65.61q-31.267 3.24-56.7 3.24-11.017 0-17.659-6.642-6.642-6.642-6.642-17.658v-38.88q0-12.15 6.804-18.954 6.966-6.966 19.116-6.966h32.4q12.15 0 18.954 6.966 6.966 6.804 6.966 18.954v29.97h-55.89v6.48q0 2.43 1.62 4.05 1.62 1.62 4.05 1.62 16.038 0 46.98-2.43z"/>
  </g>
  <path d="M281.259 151.719A126.719 126.719 0 0 1 154.54 278.438 126.719 126.719 0 0 1 27.821 151.719 126.719 126.719 0 0 1 154.54 25a126.719 126.719 0 0 1 126.719 126.719Z" fill="#ce662b" fill-rule="evenodd"/>
  <path d="M282.723 156.204 284 145.367h-34.696a94.982 94.982 0 0 1-1.82 18.226zM25 145.367l1.277 10.84 35.18 7.373a95.054 95.054 0 0 1-1.818-18.213ZM197.222 226.023v-4.458c-.047.021-.088.042-.135.06a87.909 87.909 0 0 0 21.971-17.356 3.34 3.34 0 0 1-.24-1.554c.16-2.282 2.025-4.804 4.146-5.71.842-.356 1.554-.324 2.142-.107a87.782 87.782 0 0 0 8.648-14.525c-.57.599-1.178 1.13-1.844 1.448-2.103 1.026-3.668-.046-3.486-2.326.184-2.281 2.07-4.92 4.19-5.96 1.899-.921 3.25-.18 3.386 1.61a86.381 86.381 0 0 0 4.395-14.94c-1.414.22-2.35-.723-2.191-2.52.176-1.992 1.652-4.268 3.421-5.62a88.71 88.71 0 0 0 .445-8.589c0-.036.01-.072.01-.109 0-.02-.007-.041-.007-.062 0-.075.008-.15.008-.222h-.026c-.106-2.52-1.58-4.945-4.23-7.227-11.38-9.792-44.39-16.876-83.359-16.876-38.969 0-71.981 7.084-83.361 16.876-2.65 2.282-4.124 4.706-4.227 7.227h-.026c0 .072.005.147.005.222 0 .021-.005.042-.005.062 0 .037.008.073.01.11.01 2.962.169 5.889.469 8.774 1.652 1.373 3 3.536 3.168 5.429.152 1.699-.669 2.657-1.956 2.577a86.75 86.75 0 0 0 4.206 14.424c.327-1.45 1.611-1.992 3.339-1.15 2.116 1.033 4.006 3.677 4.193 5.962.184 2.274-1.39 3.346-3.486 2.326-.49-.239-.964-.594-1.407-.987a87.717 87.717 0 0 0 8.397 14.004c.557-.148 1.197-.158 1.95.166 2.12.906 3.987 3.429 4.15 5.705a3.47 3.47 0 0 1-.174 1.386 88.106 88.106 0 0 0 23.036 18.05c-.666-.26-1.034-.41-1.034-.41v4.29c1.274 3.014 5.703 6.304 12.512 8.922 7.49 2.888 17.869 4.973 30.241 4.973 14.113 0 25.597-2.515 33.176-5.998 5.105-2.35 8.453-5.131 9.58-7.897zm-47.61-28.43a3.875 3.875 0 0 1-4.104 3.9c-2.277-.112-4.15-2.08-4.186-4.315-.036-2.246 1.803-3.927 4.103-3.81 2.3.116 4.177 1.979 4.188 4.224zm-12.752 12.53c2.25.228 4.105 2.18 4.138 4.426.034 2.245-1.753 3.932-3.975 3.704-2.228-.223-4.074-2.272-4.131-4.512-.06-2.253 1.72-3.841 3.968-3.618zm-4.82-31.254c-.057-2.248 1.792-3.828 4.13-3.592 2.334.233 4.266 2.194 4.297 4.436.031 2.246-1.826 3.93-4.138 3.696-2.31-.233-4.233-2.294-4.29-4.54zm-12.536 28.627c2.222.451 4.097 2.596 4.175 4.846.073 2.246-1.655 3.758-3.854 3.308-2.207-.446-4.056-2.681-4.16-4.937-.098-2.256 1.609-3.665 3.839-3.217zm-5.37-31.766c-.103-2.256 1.68-3.652 3.995-3.183 2.31.471 4.258 2.624 4.333 4.874.077 2.248-1.725 3.748-4.012 3.284-2.292-.466-4.217-2.722-4.315-4.975zm9.52 19.257c-.079-2.251 1.703-3.748 3.988-3.404 2.284.345 4.183 2.399 4.237 4.65.057 2.24-1.738 3.838-3.996 3.496-2.261-.342-4.152-2.497-4.23-4.742Zm65.555 12.515c2.22-.451 3.936.96 3.83 3.222-.098 2.25-1.953 4.485-4.152 4.93-2.206.446-3.931-1.061-3.853-3.307.077-2.255 1.947-4.395 4.175-4.845zm-8.38-7.776c-2.26.345-4.05-1.253-3.995-3.496.054-2.246 1.95-4.3 4.237-4.65 2.284-.344 4.06 1.159 3.983 3.41-.075 2.242-1.966 4.397-4.224 4.736zm9.434-19.018c-2.29.466-4.09-1.033-4.012-3.284.072-2.25 2.017-4.403 4.333-4.874 2.313-.467 4.092.932 3.991 3.183-.098 2.256-2.028 4.511-4.312 4.975zm-17.882 2.701c-2.32.233-4.17-1.45-4.141-3.693.034-2.245 1.955-4.204 4.297-4.44 2.339-.232 4.18 1.35 4.126 3.596-.055 2.245-1.971 4.304-4.282 4.537zm3.435 30.332c-.055 2.245-1.901 4.294-4.129 4.517-2.227.223-4.006-1.46-3.975-3.71.033-2.245 1.885-4.197 4.138-4.425 2.249-.223 4.025 1.365 3.966 3.618zm-8.43-16.563c-.037 2.24-1.904 4.203-4.181 4.32-2.28.111-4.12-1.67-4.11-3.906.01-2.24 1.888-4.108 4.19-4.224 2.303-.117 4.134 1.564 4.1 3.81zm67.477-51.852c-.925 4.737-27.04 17.2-80.391 17.2-53.352 0-79.467-12.463-80.392-17.122.925-4.737 27.04-17.2 80.392-17.2 53.35 0 79.466 12.465 80.39 17.122zm-80.505 30.86c2.346 0 4.24 1.771 4.224 4.012-.01 2.243-1.901 4.11-4.224 4.11-2.329 0-4.222-1.867-4.238-4.11-.01-2.246 1.886-4.012 4.238-4.012zm0 34.812c2.258 0 4.074 1.772 4.063 4.017-.013 2.24-1.83 4.108-4.063 4.108-2.236 0-4.062-1.868-4.075-4.108-.01-2.245 1.81-4.017 4.075-4.017zm43.892-14.802c-2.225.567-3.952-.85-3.859-3.1.099-2.25 2.007-4.501 4.26-5.074 2.251-.577 3.958.743 3.834 3.005-.124 2.255-2.007 4.597-4.235 5.17zm7.563 15.126c-2.16.673-3.818-.663-3.698-2.92.121-2.26 1.994-4.596 4.172-5.27 2.186-.678 3.82.567 3.675 2.834-.145 2.266-1.989 4.688-4.149 5.356zm2.049-35.12c-2.243.699-3.973-.622-3.852-2.883.12-2.259 2.065-4.61 4.334-5.315 2.268-.702 3.967.515 3.825 2.782-.148 2.271-2.064 4.721-4.307 5.415zm7.459 14.692c-2.173.796-3.828-.45-3.686-2.711.143-2.266 2.046-4.709 4.24-5.512 2.197-.805 3.823.342 3.657 2.614-.163 2.271-2.04 4.812-4.211 5.61zm9.718-20.997c-2.184.93-3.828-.215-3.665-2.489.16-2.271 2.093-4.825 4.291-5.765 2.205-.938 3.823.104 3.64 2.385-.185 2.287-2.088 4.945-4.266 5.87zM83.67 169.89c-2.173-.925-4.079-3.582-4.263-5.867-.186-2.282 1.432-3.323 3.631-2.388 2.202.94 4.14 3.494 4.302 5.768.16 2.274-1.489 3.416-3.67 2.487zm9.713 20.994c-2.17-.795-4.046-3.338-4.209-5.605-.166-2.274 1.463-3.421 3.657-2.616 2.194.806 4.103 3.248 4.245 5.515.137 2.26-1.52 3.506-3.693 2.706zm3.16-20.1c-.145-2.267 1.561-3.484 3.825-2.783 2.269.705 4.217 3.057 4.336 5.318.119 2.26-1.614 3.577-3.857 2.88-2.243-.697-4.162-3.15-4.304-5.416zm6.348 40.533c-2.155-.669-4.004-3.095-4.15-5.356-.145-2.272 1.495-3.51 3.673-2.84 2.18.68 4.056 3.01 4.178 5.277.121 2.256-1.541 3.592-3.701 2.919zm7.565-15.126c-2.22-.567-4.11-2.914-4.235-5.17-.124-2.26 1.59-3.582 3.836-3.004 2.25.572 4.162 2.823 4.263 5.074.101 2.25-1.64 3.667-3.864 3.1z" fill="#fff"/>
  <g>
    <g style="white-space:pre" aria-label="restaurant" font-weight="400" font-size="20" font-family="Open Sans" fill="#ce662b">
      <path d="M364.453 197.744q3.522 0 6.32.579l-1.11 7.43q-3.28-.724-5.789-.724-6.416 0-10.999 5.21-4.535 5.21-4.535 12.977v28.366h-8.008V198.71h6.61l.916 9.793h.386q2.943-5.162 7.092-7.96 4.148-2.798 9.117-2.798zM419.824 252.547q-11.723 0-18.525-7.14-6.754-7.14-6.754-19.827 0-12.785 6.272-20.31 6.32-7.526 16.933-7.526 9.938 0 15.727 6.56 5.789 6.514 5.789 17.223v5.066h-36.423q.241 9.31 4.68 14.135 4.486 4.824 12.59 4.824 8.54 0 16.885-3.57v7.14q-4.245 1.833-8.056 2.605-3.763.82-9.118.82zm-2.17-48.097q-6.369 0-10.18 4.148-3.763 4.15-4.438 11.482h27.643q0-7.574-3.377-11.578-3.377-4.052-9.649-4.052zM503.867 237.158q0 7.38-5.5 11.385-5.499 4.004-15.437 4.004-10.516 0-16.402-3.329v-7.429q3.811 1.93 8.153 3.04 4.39 1.109 8.442 1.109 6.272 0 9.649-1.978 3.377-2.026 3.377-6.127 0-3.087-2.702-5.258-2.653-2.22-10.42-5.21-7.381-2.75-10.517-4.776-3.087-2.075-4.631-4.68-1.496-2.605-1.496-6.223 0-6.465 5.259-10.18 5.258-3.762 14.424-3.762 8.539 0 16.692 3.473l-2.846 6.513q-7.96-3.28-14.425-3.28-5.692 0-8.587 1.785-2.894 1.785-2.894 4.92 0 2.123 1.06 3.618 1.11 1.496 3.523 2.847 2.412 1.35 9.262 3.907 9.407 3.426 12.688 6.899 3.328 3.473 3.328 8.732zM550.712 245.938q2.123 0 4.1-.29 1.979-.337 3.136-.675v6.127q-1.302.627-3.859 1.013-2.508.434-4.535.434-15.34 0-15.34-16.161v-31.454h-7.575v-3.86l7.574-3.328 3.377-11.289h4.632v12.254h15.34v6.223h-15.34v31.116q0 4.776 2.267 7.333 2.267 2.557 6.223 2.557zM618.168 251.582l-1.592-7.526h-.386q-3.956 4.97-7.912 6.754-3.907 1.737-9.793 1.737-7.863 0-12.35-4.052-4.438-4.053-4.438-11.53 0-16.017 25.616-16.788l8.973-.29v-3.28q0-6.224-2.701-9.166-2.653-2.991-8.539-2.991-6.61 0-14.955 4.052l-2.46-6.127q3.907-2.122 8.538-3.329 4.68-1.206 9.36-1.206 9.455 0 13.99 4.197 4.583 4.198 4.583 13.46v36.085Zm-18.091-5.644q7.478 0 11.723-4.1 4.293-4.101 4.293-11.482v-4.776l-8.008.337q-9.552.338-13.797 2.991-4.197 2.605-4.197 8.153 0 4.342 2.605 6.61 2.653 2.267 7.381 2.267zM664.907 198.709v34.3q0 6.464 2.943 9.648 2.943 3.184 9.214 3.184 8.298 0 12.109-4.534 3.86-4.535 3.86-14.81v-27.788h8.008v52.873h-6.61l-1.157-7.091h-.435q-2.46 3.907-6.85 5.982-4.342 2.074-9.938 2.074-9.648 0-14.473-4.583-4.775-4.583-4.775-14.666v-34.59zM758.863 197.744q3.522 0 6.32.579l-1.11 7.43q-3.28-.724-5.789-.724-6.416 0-11 5.21-4.534 5.21-4.534 12.977v28.366h-8.008V198.71h6.609l.917 9.793h.386q2.942-5.162 7.091-7.96t9.118-2.798zM824.413 251.582l-1.592-7.526h-.386q-3.956 4.97-7.912 6.754-3.907 1.737-9.793 1.737-7.863 0-12.35-4.052-4.438-4.053-4.438-11.53 0-16.017 25.616-16.788l8.973-.29v-3.28q0-6.224-2.701-9.166-2.653-2.991-8.539-2.991-6.61 0-14.955 4.052l-2.46-6.127q3.907-2.122 8.538-3.329 4.68-1.206 9.36-1.206 9.455 0 13.99 4.197 4.583 4.198 4.583 13.46v36.085Zm-18.091-5.644q7.478 0 11.723-4.1 4.293-4.101 4.293-11.482v-4.776l-8.008.337q-9.552.338-13.797 2.991-4.197 2.605-4.197 8.153 0 4.342 2.605 6.61 2.653 2.267 7.381 2.267zM899.808 251.582V217.38q0-6.465-2.943-9.649-2.942-3.184-9.214-3.184-8.298 0-12.157 4.487-3.86 4.486-3.86 14.81v27.74h-8.008v-52.874h6.513l1.303 7.236h.386q2.46-3.908 6.898-6.03 4.439-2.171 9.89-2.171 9.552 0 14.376 4.631 4.824 4.583 4.824 14.714v34.493ZM958.065 245.938q2.122 0 4.1-.29 1.978-.337 3.136-.675v6.127q-1.303.627-3.86 1.013-2.508.434-4.534.434-15.341 0-15.341-16.161v-31.454h-7.574v-3.86l7.574-3.328 3.377-11.289h4.63v12.254h15.342v6.223h-15.341v31.116q0 4.776 2.267 7.333 2.268 2.557 6.224 2.557z"/>
    </g>
  </g>
</svg>
